<svg width="215" height="44" viewBox="0 0 215 44" fill="none" xmlns="http://www.w3.org/2000/svg">
<path d="M157.25 19.4197V16.3298H148.35L147.61 13.7598H142.27L143 16.3298H133.4V19.4197H143.89L144.98 23.1797H133.4V26.2698H145.88L147.64 32.3898L152.99 32.3998L151.22 26.2698H157.25V23.1797H150.33L149.25 19.4197H157.25Z" fill="#65605B"/>
<path d="M142.78 36.4998C140.49 36.4998 138.62 34.6598 138.44 32.3298V29.2197H133.37V32.3298C133.61 36.3898 136.95 39.6597 140.91 39.6597C141.02 39.6597 152.8 39.6498 152.8 39.6498V36.4998H142.78Z" fill="#65605B"/>
<path d="M107.47 24.2097H103.48V38.1397H107.47V24.2097Z" fill="#65605B"/>
<path d="M80.5398 25.7997L88.0598 13.7897L82.1099 13.7798L80.5098 16.3597H74.6099V19.4797H78.5498L74.5898 25.7997H80.5398Z" fill="#65605B"/>
<path d="M93.7998 28.2899C93.7898 28.2899 93.7798 28.2899 93.7598 28.2899V19.5699H99.4697V16.3599C99.4697 16.3599 92.4697 16.3599 92.4297 16.3599C90.3697 16.3599 88.7297 18.2499 88.7297 20.3999V28.3199H82.2598V28.3399C79.4798 28.6099 77.2998 31.0499 77.2998 34.0099C77.2998 37.0199 79.5399 39.4799 82.3799 39.6899V39.6999H88.7197C91.4897 39.5599 93.7497 37.1499 93.7397 34.0899H93.7598V31.5599C95.1498 31.8599 96.3499 32.7199 97.1299 33.8899L99.5098 31.4499C98.2698 29.5399 96.1698 28.2899 93.7998 28.2899ZM88.7598 34.0099C88.7598 35.2799 87.9098 36.3099 86.7598 36.4999H84.7097C83.4497 36.3999 82.4597 35.2799 82.4597 33.9499V33.9399C82.4597 32.6799 83.3297 31.6598 84.4797 31.4698H88.7598V34.0099Z" fill="#65605B"/>
<path d="M66.8301 25.8398L69.5701 21.7997L65.8901 21.8098L64.1201 24.4097C63.5001 24.2397 62.8399 24.1398 62.1699 24.1398H58.77V19.4697H69.1001V16.3597H58.77V13.7698L53.79 13.7798V16.3597H45.25V19.4697H53.79V24.1398H52.1401C48.0701 24.1998 44.79 27.6497 44.79 31.9097C44.79 36.1997 48.13 39.6697 52.26 39.6697C52.36 39.6697 55.27 39.6697 55.27 39.6697C56.77 39.6297 58.0801 38.7998 58.8301 37.5698L64.1401 29.7798C64.4501 30.4198 64.6301 31.1497 64.6301 31.9097C64.6301 33.8897 63.44 35.5697 61.77 36.2397L64.6401 39.2498C67.5501 38.1898 69.6301 35.3097 69.6301 31.9197C69.6401 29.4497 68.5401 27.2598 66.8301 25.8398ZM60.49 27.2098C61.01 27.2498 61.51 27.3798 61.96 27.5898L58.78 32.2698V27.2098H60.49ZM49.8401 31.8998C49.8401 29.5098 51.57 27.5497 53.8 27.2897V36.5098C51.57 36.2498 49.8401 34.2798 49.8401 31.8998Z" fill="#65605B"/>
<path d="M116.34 24.3498L120.49 19.5798C120.99 19.1098 121.3 18.4298 121.3 17.6698C121.3 16.2398 120.19 15.0398 118.81 15.0398H107.58L107.57 18.1498H114.99L109.67 24.2398V27.3598H112.7C115.01 27.4898 116.84 29.4798 116.84 31.9198C116.84 34.3898 114.96 36.4198 112.61 36.4998H109.67V39.6798C109.67 39.6798 114.26 39.6798 114.35 39.6798C118.47 39.6798 121.81 36.1398 121.81 31.8498C121.81 28.2698 119.49 25.2598 116.34 24.3498Z" fill="#65605B"/>
<path d="M129.75 13.8398H126.72V18.2298H129.75V13.8398Z" fill="#65605B"/>
<path d="M125.78 13.8398H122.75V18.2298H125.78V13.8398Z" fill="#65605B"/>
<path d="M122.27 24.1897L124.99 38.1297L129.07 38.1197L126.33 24.1897H122.27Z" fill="#65605B"/>
<path d="M208.5 25.0698H204.52V27.6898H200.91L201.3 25.1298H197.29L196.8 28.3698C196.78 28.4398 196.77 28.5198 196.77 28.5998L196.76 28.6398C196.76 28.6698 196.76 28.6998 196.76 28.7298C196.76 29.5798 197.41 30.2698 198.22 30.2798H198.23H198.25H198.26H204.51V32.2898H198.03V34.9298H204.51V37.0098H197.01V39.6798H214.95V37.0098H208.49V34.9298H213.95V32.2898H208.49V30.2798H214.96V27.6898H208.49V25.0698H208.5Z" fill="#65605B"/>
<path d="M209.99 21.4697V17.8398H214.97V15.2498H205.27V13.7698H201.29V15.2498H191.58V17.8398H196.55V21.4697C196.55 21.4697 194.56 21.4697 194.52 21.4697C193.48 21.4697 192.63 22.2898 192.54 23.3398L190.05 39.6697L194.08 39.6797L196.46 24.0598H214.97V21.4697H209.99ZM200.53 17.8298H206.01V21.4598H200.53V17.8298Z" fill="#65605B"/>
<path d="M186.6 30.2998V16.0998C186.6 15.4198 186.1 14.8598 185.47 14.7998H182.67V17.3898H183.61V21.2198H182.66V23.8098H183.61V27.7098H182.66V30.2998H186.6Z" fill="#65605B"/>
<path d="M165.68 30.3098V27.7198H164.71V23.7998H165.68V21.2098H164.71V17.3898H165.68V14.7998H162.88C162.23 14.8498 161.72 15.4098 161.72 16.0898C161.72 16.0998 161.72 16.0998 161.72 16.1098V30.3098H165.68Z" fill="#65605B"/>
<path d="M181.61 13.7998H166.69V31.3498H161.72V33.9398H167.16L162.69 39.6698L167.82 39.6598L172.29 33.9298H186.6V31.3398H181.61V13.7998ZM177.63 31.3398H170.67V16.4098H177.63V31.3398Z" fill="#65605B"/>
<path d="M171.63 29.8398H176.65V22.0898H171.62L171.63 29.8398ZM173.62 24.6698H174.66V27.2398H173.62V24.6698Z" fill="#65605B"/>
<path d="M176.67 17.9397H171.64V20.5297H176.67V17.9397Z" fill="#65605B"/>
<path d="M176.83 34.9998L180.43 39.6697L185.55 39.6597L181.92 34.9697L176.83 34.9998Z" fill="#65605B"/>
<path d="M26.4197 23.73C26.6797 24.9 26.8198 26.12 26.8198 27.37C26.8198 29.42 26.4898 31.34 25.8298 33.13L25.0898 35.04C25.4498 35.6 29.5697 41.9 34.4097 38.93C34.4097 38.93 38.5497 36.44 37.1997 31.61C37.1997 31.61 36.5298 28.51 32.3098 26.06C32.3098 26.06 31.1197 25.18 28.2097 24.19L26.4197 23.73Z" fill="url(#paint0_radial_8_4935)"/>
<path d="M28.26 24.2198C28.66 16.1498 26.8401 11.9698 26.8401 11.9698C23.3401 1.97985 17.03 0.869863 14.46 0.859863C14.44 0.859863 14.3801 0.859863 14.3601 0.859863C13.7101 0.869863 13.3201 0.93988 13.3201 0.93988C9.79007 1.47988 7.07007 4.64989 7.07007 8.44989C7.07007 8.50989 6.59011 16.6399 16.6101 20.9199C16.6101 20.9199 20.5699 22.7499 26.4199 23.7599L28.26 24.2198Z" fill="url(#paint1_radial_8_4935)"/>
<path d="M25.8501 33.1598C20.5501 24.4298 14.3101 22.9498 12.6001 22.7298C11.8501 22.6298 11.1301 22.5498 10.3601 22.5498C4.64011 22.5498 0 27.3498 0 33.2698C0 39.1898 4.64011 43.9898 10.3601 43.9898C10.9301 43.9898 11.5201 43.9898 12.0701 43.9098C17.7801 43.2598 22.5701 39.9698 25.1201 35.0398L25.8501 33.1598Z" fill="url(#paint2_radial_8_4935)"/>
<defs>
<radialGradient id="paint0_radial_8_4935" cx="0" cy="0" r="1" gradientUnits="userSpaceOnUse" gradientTransform="translate(28.1907 28.5354) scale(10.2293 10.5799)">
<stop stop-color="#6D97CE"/>
<stop offset="0.0731" stop-color="#518EC9"/>
<stop offset="0.2401" stop-color="#177BBF"/>
<stop offset="0.3202" stop-color="#0073BB"/>
<stop offset="0.4841" stop-color="#006BAF"/>
<stop offset="0.7624" stop-color="#0062A1"/>
<stop offset="1" stop-color="#005F9C"/>
</radialGradient>
<radialGradient id="paint1_radial_8_4935" cx="0" cy="0" r="1" gradientUnits="userSpaceOnUse" gradientTransform="translate(11.2585 4.44092) scale(17.8504 18.4669)">
<stop stop-color="#93B4DE"/>
<stop offset="0.1297" stop-color="#5297CE"/>
<stop offset="0.2587" stop-color="#177DC0"/>
<stop offset="0.3202" stop-color="#0073BB"/>
<stop offset="0.6655" stop-color="#006BAF"/>
<stop offset="1" stop-color="#0068AA"/>
</radialGradient>
<radialGradient id="paint2_radial_8_4935" cx="0" cy="0" r="1" gradientUnits="userSpaceOnUse" gradientTransform="translate(5.55847 27.703) scale(15.7235 16.2664)">
<stop stop-color="#93B4DE"/>
<stop offset="0.1297" stop-color="#5297CE"/>
<stop offset="0.2587" stop-color="#177DC0"/>
<stop offset="0.3202" stop-color="#0073BB"/>
<stop offset="0.4031" stop-color="#0070B6"/>
<stop offset="0.7251" stop-color="#0066A8"/>
<stop offset="1" stop-color="#0063A3"/>
</radialGradient>
</defs>
</svg>
